<svg width="195" height="170" viewBox="0 0 195 170" fill="none" xmlns="http://www.w3.org/2000/svg">
<g clip-path="url(#clip0_4_26)">
<path d="M97.3794 169.415L41.1897 155.808L28.6681 33.2939H166.259L153.724 155.789L97.3794 169.415Z" fill="#264DE4"/>
<path d="M142.993 147.989L153.705 43.3113H97.4636V159L142.993 147.989Z" fill="#2965F1"/>
<path d="M57.3737 88.75L58.9175 103.776H97.4636V88.75H57.3737Z" fill="#EBEBEB"/>
<path d="M54.2716 58.3373L55.8374 73.3633H97.4636V58.3373H54.2716Z" fill="#EBEBEB"/>
<path d="M97.4636 127.774L97.3882 127.791L78.2046 123.273L76.9783 111.289H59.6871L62.1003 134.882L97.3844 143.426L97.4636 143.407V127.774Z" fill="#EBEBEB"/>
<path d="M61.0492 -0.00012207H81.9116V7.61033H69.7735V15.2208H81.9116V22.8312H61.0492V-0.00012207Z" fill="black"/>
<path d="M86.0841 -0.00012207H106.947V6.61766H94.8084V7.94122H106.947V23.1621H86.0841V16.2134H98.2222V14.8899H86.0841V-0.00012207Z" fill="black"/>
<path d="M111.119 -0.00012207H131.981V6.61766H119.843V7.94122H131.981V23.1621H111.119V16.2134H123.257V14.8899H111.119V-0.00012207Z" fill="black"/>
<path d="M137.443 88.75L140.553 58.3373H97.4041V73.3633H121.676L120.108 88.75H97.4041V103.776H118.615L116.615 123.263L97.4041 127.786V143.419L132.716 134.882L132.975 132.343L137.023 92.7848L137.443 88.75Z" fill="white"/>
</g>
<defs>
<clipPath id="clip0_4_26">
<rect width="194.702" height="169.844" fill="white" transform="translate(0.112549 -0.00012207)"/>
</clipPath>
</defs>
</svg>
