<svg width="195" height="170" viewBox="0 0 195 170" fill="none" xmlns="http://www.w3.org/2000/svg">
<g clip-path="url(#clip0_4_52)">
<path d="M129.801 113.23C147.723 113.23 162.252 100.556 162.252 84.9221C162.252 69.2884 147.723 56.6147 129.801 56.6147C111.88 56.6147 97.3511 69.2884 97.3511 84.9221C97.3511 100.556 111.88 113.23 129.801 113.23Z" fill="#19BCFE"/>
<path fill-rule="evenodd" clip-rule="evenodd" d="M64.9007 169.844C82.8225 169.844 97.351 157.171 97.351 141.537C97.351 137.269 97.351 127.833 97.351 113.229C82.773 113.229 71.9562 113.229 64.9007 113.229C46.9788 113.229 32.4503 125.903 32.4503 141.537C32.4503 157.171 46.9788 169.844 64.9007 169.844Z" fill="#09CF83"/>
<path fill-rule="evenodd" clip-rule="evenodd" d="M64.9007 113.23C70.8746 113.23 81.6914 113.23 97.351 113.23V56.6147C81.6914 56.6147 70.8746 56.6147 64.9007 56.6147C46.9788 56.6147 32.4503 69.2884 32.4503 84.9221C32.4503 100.556 46.9788 113.23 64.9007 113.23Z" fill="#A259FF"/>
<path fill-rule="evenodd" clip-rule="evenodd" d="M64.9007 56.6148C70.8746 56.6148 81.6914 56.6148 97.351 56.6148V0C81.6914 0 70.8746 0 64.9007 0C46.9788 0 32.4503 12.6737 32.4503 28.3074C32.4503 43.9411 46.9788 56.6148 64.9007 56.6148Z" fill="#F24E1E"/>
<path fill-rule="evenodd" clip-rule="evenodd" d="M129.801 56.6148H97.3511V0H129.801C147.723 0 162.252 12.6737 162.252 28.3074C162.252 43.9411 147.723 56.6148 129.801 56.6148Z" fill="#FF7262"/>
</g>
<defs>
<clipPath id="clip0_4_52">
<rect width="194.702" height="169.844" fill="white"/>
</clipPath>
</defs>
</svg>
