<svg width="195" height="170" viewBox="0 0 195 170" fill="none" xmlns="http://www.w3.org/2000/svg">
<g clip-path="url(#clip0_4_40)">
<path d="M166.147 33.2941L153.612 155.789L97.2668 169.415L41.0772 155.808L28.5555 33.2941H166.147Z" fill="#E44D26"/>
<path d="M97.3511 159L142.88 147.989L153.592 43.3114H97.3511V159Z" fill="#F16529"/>
<path d="M72.9838 73.3634H97.3511V58.3374H54.1591L54.5714 62.3686L58.8049 103.776H97.3511V88.7501H74.5579L72.9838 73.3634Z" fill="#EBEBEB"/>
<path d="M76.8657 111.289H59.5746L61.9878 134.882L97.2718 143.426L97.3511 143.407V127.774L97.2756 127.791L78.0921 123.273L76.8657 111.289Z" fill="#EBEBEB"/>
<path d="M41.3571 0H50.1105V7.54427H58.1179V0H66.8718V22.8459H58.1183V15.1958H50.1109V22.8459H41.3574V0H41.3571Z" fill="black"/>
<path d="M78.383 7.57604H70.6768V0H94.8468V7.57604H87.1372V22.8459H78.3833V7.57604H78.383Z" fill="black"/>
<path d="M98.6827 0H107.81L113.425 8.02737L119.034 0H128.165V22.8459H119.447V11.5222L113.425 19.6452H113.274L107.248 11.5222V22.8459H98.6827V0Z" fill="black"/>
<path d="M132.521 0H141.277V15.2944H153.587V22.8459H132.521V0Z" fill="black"/>
<path d="M97.2915 103.776H118.502L116.503 123.263L97.2915 127.787V143.419L132.604 134.882L132.863 132.343L136.91 92.7851L137.331 88.7502H97.2915V103.776Z" fill="white"/>
<path d="M97.2915 73.3267V73.3634H138.898L139.244 69.986L140.028 62.3686L140.44 58.3374H97.2915V73.3267Z" fill="white"/>
</g>
<defs>
<clipPath id="clip0_4_40">
<rect width="194.702" height="169.844" fill="white"/>
</clipPath>
</defs>
</svg>
