<svg width="159" height="170" viewBox="0 0 159 170" fill="none" xmlns="http://www.w3.org/2000/svg">
<g clip-path="url(#clip0_4_37)">
<path d="M158.374 -0.00012207H0.271444C0.245848 -0.00012207 0.225098 0.0221558 0.225098 0.049637V169.794C0.225098 169.822 0.245848 169.844 0.271444 169.844H158.374C158.4 169.844 158.42 169.822 158.42 169.794V0.049637C158.42 0.0221558 158.4 -0.00012207 158.374 -0.00012207Z" fill="#F7DF1E"/>
<path d="M100.333 122.739C103.423 128.378 107.748 132.359 114.855 132.359C121.034 132.359 125.051 129.042 125.051 124.398C125.051 119.09 121.034 117.1 114.237 113.782L110.529 112.124C99.7151 107.148 92.6087 101.177 92.6087 88.2393C92.6087 76.2972 100.951 67.0088 114.237 67.0088C123.815 67.0088 130.613 70.6578 135.247 79.9462L123.815 87.9076C121.343 82.9317 118.563 80.9413 114.237 80.9413C109.911 80.9413 107.131 83.9269 107.131 87.9076C107.131 92.5518 109.911 94.5422 116.4 97.5277L120.107 99.1863C132.775 105.157 139.882 110.797 139.882 124.398C139.882 138.662 129.377 146.623 115.164 146.623C101.26 146.623 92.2997 139.657 87.974 130.369L100.333 122.739ZM47.8072 124.066C50.279 128.378 52.1329 132.359 57.3855 132.359C62.3291 132.359 65.4188 130.369 65.4188 122.407V67.3405H80.2496V121.744C80.2496 138.33 71.2894 145.628 58.0034 145.628C45.9534 145.628 39.1559 138.994 35.7572 131.032L47.8072 124.066Z" fill="black"/>
</g>
<defs>
<clipPath id="clip0_4_37">
<rect width="158.195" height="169.844" fill="white" transform="translate(0.225098 -0.00012207)"/>
</clipPath>
</defs>
</svg>
