<svg width="182" height="38" viewBox="0 0 182 38" fill="none" xmlns="http://www.w3.org/2000/svg">
<path d="M16.0801 10.4L17.7601 14.2L4.92005 19.68L17.7601 25.08L16.0801 28.96L0.680054 22.08V17.32L16.0801 10.4Z" fill="url(#paint0_linear_20_3)"/>
<path d="M32.2707 0.52002L36.6707 1.52002L27.3507 37.32L22.9107 36.28L32.2707 0.52002Z" fill="url(#paint1_linear_20_3)"/>
<path d="M50.2119 5.36002C54.5053 5.36002 57.9319 6.33335 60.4919 8.28002C63.0786 10.2267 64.3719 13.8134 64.3719 19.04C64.3719 24.16 63.1053 27.7734 60.5719 29.88C58.0386 31.96 54.8253 33 50.9319 33H43.4119V5.36002H50.2119ZM48.6919 9.32002V29.04H51.2919C53.6386 29.04 55.4786 28.32 56.8119 26.88C58.1453 25.4134 58.8119 22.8 58.8119 19.04C58.8119 16.4267 58.4653 14.4134 57.7719 13C57.1053 11.56 56.2119 10.5867 55.0919 10.08C53.9986 9.57335 52.6786 9.32002 51.1319 9.32002H48.6919Z" fill="url(#paint2_linear_20_3)"/>
<path d="M86.1094 33H81.6694L81.3894 30.04C80.6161 31.24 79.6961 32.1334 78.6294 32.72C77.5894 33.3067 76.3494 33.6 74.9094 33.6C73.0161 33.6 71.5494 33.0267 70.5094 31.88C69.4961 30.7067 68.9894 29.0934 68.9894 27.04V11.84H74.1094V26.4C74.1094 27.6 74.3094 28.4534 74.7094 28.96C75.1361 29.4667 75.8028 29.72 76.7094 29.72C78.3361 29.72 79.7628 28.72 80.9894 26.72V11.84H86.1094V33Z" fill="url(#paint3_linear_20_3)"/>
<path d="M107.915 27.4C107.915 28.2267 108.035 28.84 108.275 29.24C108.542 29.6134 108.955 29.9067 109.515 30.12L108.435 33.52C107.235 33.4134 106.249 33.12 105.475 32.64C104.729 32.16 104.155 31.4267 103.755 30.44C103.035 31.5067 102.129 32.3067 101.035 32.84C99.9687 33.3467 98.7687 33.6 97.4354 33.6C95.3287 33.6 93.662 33 92.4354 31.8C91.2087 30.6 90.5954 29.0267 90.5954 27.08C90.5954 24.7867 91.422 23.04 93.0754 21.84C94.7554 20.6134 97.142 20 100.235 20H102.875V18.8C102.875 17.44 102.555 16.4934 101.915 15.96C101.302 15.4 100.302 15.12 98.9154 15.12C97.3687 15.12 95.502 15.4934 93.3154 16.24L92.1154 12.76C94.7554 11.7467 97.3154 11.24 99.7954 11.24C105.209 11.24 107.915 13.6667 107.915 18.52V27.4ZM98.7954 29.88C100.529 29.88 101.889 29.0134 102.875 27.28V23H100.755C97.4487 23 95.7954 24.2267 95.7954 26.68C95.7954 27.6934 96.0487 28.48 96.5554 29.04C97.062 29.6 97.8087 29.88 98.7954 29.88Z" fill="url(#paint4_linear_20_3)"/>
<path d="M124.551 11.28C125.325 11.28 126.031 11.3734 126.671 11.56L125.791 16.52C125.151 16.36 124.525 16.28 123.911 16.28C122.658 16.28 121.671 16.7334 120.951 17.64C120.231 18.52 119.658 19.88 119.231 21.72V33H114.111V11.84H118.551L119.031 16C119.538 14.48 120.271 13.32 121.231 12.52C122.191 11.6934 123.298 11.28 124.551 11.28Z" fill="url(#paint5_linear_20_3)"/>
<path d="M141.973 32C141.227 32.5334 140.387 32.9334 139.453 33.2C138.547 33.4667 137.613 33.6 136.653 33.6C134.573 33.5734 132.987 32.9867 131.893 31.84C130.827 30.6667 130.293 28.9467 130.293 26.68V15.52H126.973V11.84H130.293V7.16002L135.413 6.56002V11.84H140.333L139.813 15.52H135.413V26.56C135.413 27.6 135.587 28.3467 135.933 28.8C136.307 29.2534 136.88 29.48 137.653 29.48C138.427 29.48 139.267 29.2267 140.173 28.72L141.973 32Z" fill="url(#paint6_linear_20_3)"/>
<path d="M161.549 21.92C161.549 22.1867 161.509 22.88 161.429 24H148.149C148.309 26.0534 148.843 27.52 149.749 28.4C150.656 29.28 151.856 29.72 153.349 29.72C154.283 29.72 155.163 29.5734 155.989 29.28C156.816 28.96 157.696 28.48 158.629 27.84L160.749 30.76C158.403 32.6534 155.789 33.6 152.909 33.6C149.683 33.6 147.189 32.6134 145.429 30.64C143.696 28.6667 142.829 25.9734 142.829 22.56C142.829 20.4 143.203 18.4667 143.949 16.76C144.696 15.0267 145.776 13.68 147.189 12.72C148.603 11.7334 150.283 11.24 152.229 11.24C155.189 11.24 157.483 12.1867 159.109 14.08C160.736 15.9467 161.549 18.56 161.549 21.92ZM156.469 20.44C156.469 16.7334 155.096 14.88 152.349 14.88C151.096 14.88 150.109 15.3467 149.389 16.28C148.696 17.1867 148.283 18.6534 148.149 20.68H156.469V20.44Z" fill="url(#paint7_linear_20_3)"/>
<path d="M166.423 10.4L181.823 17.32V22.08L166.423 28.96L164.743 25.08L177.543 19.68L164.743 14.2L166.423 10.4Z" fill="url(#paint8_linear_20_3)"/>
<defs>
<linearGradient id="paint0_linear_20_3" x1="91.2513" y1="0.52002" x2="91.2513" y2="37.32" gradientUnits="userSpaceOnUse">
<stop stop-color="#09CF83"/>
<stop offset="1" stop-color="#2E931D"/>
</linearGradient>
<linearGradient id="paint1_linear_20_3" x1="91.2513" y1="0.52002" x2="91.2513" y2="37.32" gradientUnits="userSpaceOnUse">
<stop stop-color="#09CF83"/>
<stop offset="1" stop-color="#2E931D"/>
</linearGradient>
<linearGradient id="paint2_linear_20_3" x1="91.2513" y1="0.52002" x2="91.2513" y2="37.32" gradientUnits="userSpaceOnUse">
<stop stop-color="#09CF83"/>
<stop offset="1" stop-color="#2E931D"/>
</linearGradient>
<linearGradient id="paint3_linear_20_3" x1="91.2513" y1="0.52002" x2="91.2513" y2="37.32" gradientUnits="userSpaceOnUse">
<stop stop-color="#09CF83"/>
<stop offset="1" stop-color="#2E931D"/>
</linearGradient>
<linearGradient id="paint4_linear_20_3" x1="91.2513" y1="0.52002" x2="91.2513" y2="37.32" gradientUnits="userSpaceOnUse">
<stop stop-color="#09CF83"/>
<stop offset="1" stop-color="#2E931D"/>
</linearGradient>
<linearGradient id="paint5_linear_20_3" x1="91.2513" y1="0.52002" x2="91.2513" y2="37.32" gradientUnits="userSpaceOnUse">
<stop stop-color="#09CF83"/>
<stop offset="1" stop-color="#2E931D"/>
</linearGradient>
<linearGradient id="paint6_linear_20_3" x1="91.2513" y1="0.52002" x2="91.2513" y2="37.32" gradientUnits="userSpaceOnUse">
<stop stop-color="#09CF83"/>
<stop offset="1" stop-color="#2E931D"/>
</linearGradient>
<linearGradient id="paint7_linear_20_3" x1="91.2513" y1="0.52002" x2="91.2513" y2="37.32" gradientUnits="userSpaceOnUse">
<stop stop-color="#09CF83"/>
<stop offset="1" stop-color="#2E931D"/>
</linearGradient>
<linearGradient id="paint8_linear_20_3" x1="91.2513" y1="0.52002" x2="91.2513" y2="37.32" gradientUnits="userSpaceOnUse">
<stop stop-color="#09CF83"/>
<stop offset="1" stop-color="#2E931D"/>
</linearGradient>
</defs>
</svg>
