<svg width="16" height="16" viewBox="0 0 16 16" fill="none" xmlns="http://www.w3.org/2000/svg">
<path d="M8 0.19801C3.5805 0.19801 0 3.78151 0 8.19801C0 11.7345 2.292 14.732 5.4685 15.7895C5.87 15.865 6.015 15.6175 6.015 15.4035C6.015 15.2135 6.0105 14.711 6.0075 14.044C3.781 14.526 3.312 12.9685 3.312 12.9685C2.9475 12.0465 2.4215 11.799 2.4215 11.799C1.6975 11.3045 2.479 11.315 2.479 11.315C3.281 11.3695 3.703 12.1375 3.703 12.1375C4.4165 13.3615 5.575 13.0075 6.0335 12.8015C6.1035 12.286 6.312 11.9315 6.539 11.734C4.763 11.5335 2.8955 10.846 2.8955 7.78051C2.8955 6.90501 3.2055 6.19201 3.718 5.63201C3.6295 5.43151 3.3585 4.61651 3.7885 3.51451C3.7885 3.51451 4.458 3.30101 5.9885 4.33501C6.629 4.15751 7.309 4.06901 7.9885 4.06451C8.6685 4.06901 9.348 4.15801 9.9885 4.33501C11.51 3.30101 12.179 3.51451 12.179 3.51451C12.6085 4.61651 12.3375 5.43101 12.2595 5.63201C12.767 6.19201 13.077 6.90551 13.077 7.78051C13.077 10.853 11.207 11.5305 9.429 11.726C9.707 11.9655 9.9675 12.458 9.9675 13.2055C9.9675 14.2755 9.9575 15.1375 9.9575 15.398C9.9575 15.606 10.0975 15.856 10.5095 15.7755C13.7095 14.729 15.999 11.729 15.999 8.19751C15.999 3.78101 12.4185 0.19751 7.999 0.19751L8 0.19801Z" fill="#A3A3A3"/>
</svg>
