<svg width="16" height="16" viewBox="0 0 16 16" fill="none" xmlns="http://www.w3.org/2000/svg">
<path d="M11.9778 0H4.00952C1.80174 0 0 1.80317 0 4.0127V12C0 14.1968 1.80174 16 4.00952 16H11.9905C14.1983 16 16 14.1968 16 11.9873V4.0127C15.9873 1.80317 14.1856 0 11.9778 0ZM5.3291 12.9524H3.0452V6.34921H5.3291V12.9524ZM4.17447 5.33333C3.52736 5.33333 3.00714 4.8127 3.00714 4.16508C3.00714 3.51746 3.52736 2.99683 4.17447 2.99683C4.82157 2.99683 5.34179 3.51746 5.34179 4.16508C5.3291 4.8127 4.80888 5.33333 4.17447 5.33333ZM12.9548 12.9524H12.9421H11.0389V9.75238C11.0389 8.97778 10.9374 7.9873 9.88422 7.9873C8.80571 7.9873 8.62807 8.8254 8.62807 9.70159V12.9524H6.72482V6.34921H8.50119V7.2381H8.55194C8.83109 6.73016 9.47819 6.33651 10.4933 6.33651C12.5868 6.33651 12.9548 7.54286 12.9548 9.33333V12.9524Z" fill="#A3A3A3"/>
</svg>
